<svg data-v-fde0c5aa="" xmlns="http://www.w3.org/2000/svg" viewBox="0 0 300 300" class="iconLeftSlogan"><!----><defs data-v-fde0c5aa=""><!----></defs><rect data-v-fde0c5aa="" fill="#FFFFFF" x="0" y="0" width="300px" height="300px" class="logo-background-square"></rect><defs data-v-fde0c5aa=""><!----></defs><g data-v-fde0c5aa="" id="47b45557-905c-41ea-8a07-6ad81ab5c9e0" fill="#9579F1" transform="matrix(1.350089535322679,0,0,1.350089535322679,96.54465912318797,129.57730874868253)"><path d="M3.46 12.08L3.46 12.08L3.46 12.08Q5.59 12.08 5.59 10.63L5.59 10.63L5.59 10.63Q5.59 10.18 5.40 9.86L5.40 9.86L5.40 9.86Q5.21 9.55 4.89 9.32L4.89 9.32L4.89 9.32Q4.56 9.09 4.15 8.92L4.15 8.92L4.15 8.92Q3.74 8.75 3.28 8.58L3.28 8.58L3.28 8.58Q2.74 8.40 2.27 8.17L2.27 8.17L2.27 8.17Q1.79 7.94 1.44 7.62L1.44 7.62L1.44 7.62Q1.09 7.31 0.89 6.87L0.89 6.87L0.89 6.87Q0.69 6.44 0.69 5.82L0.69 5.82L0.69 5.82Q0.69 4.55 1.55 3.84L1.55 3.84L1.55 3.84Q2.42 3.12 3.95 3.12L3.95 3.12L3.95 3.12Q4.83 3.12 5.55 3.31L5.55 3.31L5.55 3.31Q6.27 3.50 6.61 3.72L6.61 3.72L6.17 4.83L6.17 4.83Q5.88 4.65 5.30 4.47L5.30 4.47L5.30 4.47Q4.72 4.30 3.95 4.30L3.95 4.30L3.95 4.30Q3.56 4.30 3.22 4.38L3.22 4.38L3.22 4.38Q2.88 4.47 2.63 4.63L2.63 4.63L2.63 4.63Q2.38 4.80 2.23 5.06L2.23 5.06L2.23 5.06Q2.09 5.32 2.09 5.67L2.09 5.67L2.09 5.67Q2.09 6.06 2.24 6.33L2.24 6.33L2.24 6.33Q2.39 6.59 2.67 6.80L2.67 6.80L2.67 6.80Q2.95 7 3.33 7.17L3.33 7.17L3.33 7.17Q3.70 7.34 4.14 7.50L4.14 7.50L4.14 7.50Q4.77 7.76 5.30 8.01L5.30 8.01L5.30 8.01Q5.82 8.26 6.21 8.61L6.21 8.61L6.21 8.61Q6.59 8.96 6.80 9.44L6.80 9.44L6.80 9.44Q7.01 9.93 7.01 10.61L7.01 10.61L7.01 10.61Q7.01 11.89 6.08 12.57L6.08 12.57L6.08 12.57Q5.15 13.26 3.46 13.26L3.46 13.26L3.46 13.26Q2.88 13.26 2.40 13.18L2.40 13.18L2.40 13.18Q1.92 13.10 1.54 13.00L1.54 13.00L1.54 13.00Q1.16 12.89 0.89 12.78L0.89 12.78L0.89 12.78Q0.62 12.66 0.46 12.57L0.46 12.57L0.87 11.45L0.87 11.45Q1.19 11.63 1.85 11.86L1.85 11.86L1.85 11.86Q2.51 12.08 3.46 12.08ZM9.87 5.77L9.87 13.05L8.57 13.05L8.57 5.77L9.87 5.77ZM9.21 4.45L9.21 4.45L9.21 4.45Q8.86 4.45 8.62 4.22L8.62 4.22L8.62 4.22Q8.37 3.99 8.37 3.60L8.37 3.60L8.37 3.60Q8.37 3.21 8.62 2.97L8.62 2.97L8.62 2.97Q8.86 2.74 9.21 2.74L9.21 2.74L9.21 2.74Q9.56 2.74 9.81 2.97L9.81 2.97L9.81 2.97Q10.05 3.21 10.05 3.60L10.05 3.60L10.05 3.60Q10.05 3.99 9.81 4.22L9.81 4.22L9.81 4.22Q9.56 4.45 9.21 4.45ZM12.11 13.05L12.11 5.98L12.11 5.98Q12.56 5.87 13.29 5.74L13.29 5.74L13.29 5.74Q14.03 5.61 14.99 5.61L14.99 5.61L14.99 5.61Q15.69 5.61 16.17 5.80L16.17 5.80L16.17 5.80Q16.65 5.99 16.97 6.36L16.97 6.36L16.97 6.36Q17.07 6.29 17.28 6.16L17.28 6.16L17.28 6.16Q17.49 6.03 17.79 5.92L17.79 5.92L17.79 5.92Q18.10 5.80 18.48 5.71L18.48 5.71L18.48 5.71Q18.86 5.61 19.29 5.61L19.29 5.61L19.29 5.61Q20.13 5.61 20.66 5.86L20.66 5.86L20.66 5.86Q21.20 6.10 21.50 6.55L21.50 6.55L21.50 6.55Q21.80 7 21.90 7.62L21.90 7.62L21.90 7.62Q22.01 8.23 22.01 8.96L22.01 8.96L22.01 13.05L20.71 13.05L20.71 9.24L20.71 9.24Q20.71 8.60 20.64 8.13L20.64 8.13L20.64 8.13Q20.58 7.67 20.41 7.36L20.41 7.36L20.41 7.36Q20.23 7.06 19.93 6.91L19.93 6.91L19.93 6.91Q19.63 6.76 19.15 6.76L19.15 6.76L19.15 6.76Q18.49 6.76 18.07 6.94L18.07 6.94L18.07 6.94Q17.64 7.11 17.49 7.25L17.49 7.25L17.49 7.25Q17.60 7.62 17.65 8.05L17.65 8.05L17.65 8.05Q17.71 8.48 17.71 8.96L17.71 8.96L17.71 13.05L16.41 13.05L16.41 9.24L16.41 9.24Q16.41 8.60 16.34 8.13L16.34 8.13L16.34 8.13Q16.27 7.67 16.09 7.36L16.09 7.36L16.09 7.36Q15.92 7.06 15.62 6.91L15.62 6.91L15.62 6.91Q15.32 6.76 14.85 6.76L14.85 6.76L14.85 6.76Q14.66 6.76 14.43 6.78L14.43 6.78L14.43 6.78Q14.21 6.79 14.01 6.81L14.01 6.81L14.01 6.81Q13.80 6.83 13.64 6.86L13.64 6.86L13.64 6.86Q13.47 6.89 13.41 6.90L13.41 6.90L13.41 13.05L12.11 13.05ZM30.59 9.41L30.59 9.41L30.59 9.41Q30.59 10.28 30.34 10.98L30.34 10.98L30.34 10.98Q30.09 11.68 29.63 12.18L29.63 12.18L29.63 12.18Q29.18 12.68 28.55 12.96L28.55 12.96L28.55 12.96Q27.92 13.23 27.17 13.23L27.17 13.23L27.17 13.23Q26.43 13.23 25.80 12.96L25.80 12.96L25.80 12.96Q25.17 12.68 24.72 12.18L24.72 12.18L24.72 12.18Q24.26 11.68 24.01 10.98L24.01 10.98L24.01 10.98Q23.76 10.28 23.76 9.41L23.76 9.41L23.76 9.41Q23.76 8.55 24.01 7.85L24.01 7.85L24.01 7.85Q24.26 7.14 24.72 6.64L24.72 6.64L24.72 6.64Q25.17 6.13 25.80 5.86L25.80 5.86L25.80 5.86Q26.43 5.59 27.17 5.59L27.17 5.59L27.17 5.59Q27.92 5.59 28.55 5.86L28.55 5.86L28.55 5.86Q29.18 6.13 29.63 6.64L29.63 6.64L29.63 6.64Q30.09 7.14 30.34 7.85L30.34 7.85L30.34 7.85Q30.59 8.55 30.59 9.41ZM29.23 9.41L29.23 9.41L29.23 9.41Q29.23 8.18 28.68 7.46L28.68 7.46L28.68 7.46Q28.13 6.73 27.17 6.73L27.17 6.73L27.17 6.73Q26.22 6.73 25.67 7.46L25.67 7.46L25.67 7.46Q25.12 8.18 25.12 9.41L25.12 9.41L25.12 9.41Q25.12 10.64 25.67 11.36L25.67 11.36L25.67 11.36Q26.22 12.08 27.17 12.08L27.17 12.08L27.17 12.08Q28.13 12.08 28.68 11.36L28.68 11.36L28.68 11.36Q29.23 10.64 29.23 9.41ZM32.42 13.05L32.42 5.98L32.42 5.98Q32.87 5.87 33.61 5.74L33.61 5.74L33.61 5.74Q34.36 5.61 35.32 5.61L35.32 5.61L35.32 5.61Q36.19 5.61 36.76 5.86L36.76 5.86L36.76 5.86Q37.34 6.10 37.68 6.54L37.68 6.54L37.68 6.54Q38.02 6.99 38.16 7.60L38.16 7.60L38.16 7.60Q38.30 8.22 38.30 8.96L38.30 8.96L38.30 13.05L37.00 13.05L37.00 9.24L37.00 9.24Q37.00 8.57 36.91 8.09L36.91 8.09L36.91 8.09Q36.82 7.62 36.61 7.32L36.61 7.32L36.61 7.32Q36.40 7.03 36.05 6.89L36.05 6.89L36.05 6.89Q35.70 6.76 35.18 6.76L35.18 6.76L35.18 6.76Q34.97 6.76 34.75 6.78L34.75 6.78L34.75 6.78Q34.52 6.79 34.32 6.81L34.32 6.81L34.32 6.81Q34.12 6.83 33.96 6.86L33.96 6.86L33.96 6.86Q33.80 6.89 33.73 6.90L33.73 6.90L33.73 13.05L32.42 13.05ZM46.40 13.13L46.40 13.13L46.40 13.13Q46.10 13.13 45.76 13.12L45.76 13.12L45.76 13.12Q45.42 13.10 45.07 13.08L45.07 13.08L45.07 13.08Q44.73 13.05 44.39 13.01L44.39 13.01L44.39 13.01Q44.06 12.96 43.78 12.89L43.78 12.89L43.78 3.49L43.78 3.49Q44.06 3.42 44.39 3.37L44.39 3.37L44.39 3.37Q44.73 3.33 45.07 3.30L45.07 3.30L45.07 3.30Q45.42 3.28 45.75 3.26L45.75 3.26L45.75 3.26Q46.09 3.25 46.38 3.25L46.38 3.25L46.38 3.25Q47.22 3.25 47.96 3.37L47.96 3.37L47.96 3.37Q48.69 3.50 49.23 3.80L49.23 3.80L49.23 3.80Q49.77 4.10 50.08 4.59L50.08 4.59L50.08 4.59Q50.39 5.08 50.39 5.80L50.39 5.80L50.39 5.80Q50.39 6.59 50.01 7.10L50.01 7.10L50.01 7.10Q49.63 7.62 49.00 7.87L49.00 7.87L49.00 7.87Q49.85 8.12 50.36 8.67L50.36 8.67L50.36 8.67Q50.86 9.21 50.86 10.21L50.86 10.21L50.86 10.21Q50.86 11.66 49.79 12.40L49.79 12.40L49.79 12.40Q48.72 13.13 46.40 13.13ZM46.87 8.53L45.12 8.53L45.12 11.94L45.12 11.94Q45.28 11.96 45.49 11.97L45.49 11.97L45.49 11.97Q45.67 11.98 45.91 11.99L45.91 11.99L45.91 11.99Q46.16 12.00 46.48 12.00L46.48 12.00L46.48 12.00Q47.08 12.00 47.62 11.92L47.62 11.92L47.62 11.92Q48.16 11.84 48.57 11.65L48.57 11.65L48.57 11.65Q48.97 11.45 49.22 11.10L49.22 11.10L49.22 11.10Q49.46 10.75 49.46 10.22L49.46 10.22L49.46 10.22Q49.46 9.74 49.28 9.41L49.28 9.41L49.28 9.41Q49.10 9.09 48.76 8.89L48.76 8.89L48.76 8.89Q48.41 8.69 47.94 8.61L47.94 8.61L47.94 8.61Q47.46 8.53 46.87 8.53L46.87 8.53ZM45.12 4.44L45.12 7.43L46.55 7.43L46.55 7.43Q47.05 7.43 47.50 7.36L47.50 7.36L47.50 7.36Q47.95 7.29 48.28 7.11L48.28 7.11L48.28 7.11Q48.61 6.93 48.80 6.64L48.80 6.64L48.80 6.64Q48.99 6.34 48.99 5.89L48.99 5.89L48.99 5.89Q48.99 5.47 48.79 5.19L48.79 5.19L48.79 5.19Q48.59 4.90 48.25 4.72L48.25 4.72L48.25 4.72Q47.91 4.55 47.45 4.47L47.45 4.47L47.45 4.47Q46.98 4.38 46.47 4.38L46.47 4.38L46.47 4.38Q45.95 4.38 45.65 4.40L45.65 4.40L45.65 4.40Q45.36 4.41 45.12 4.44L45.12 4.44ZM52.29 9.42L52.29 9.42L52.29 9.42Q52.29 8.46 52.57 7.74L52.57 7.74L52.57 7.74Q52.85 7.01 53.31 6.54L53.31 6.54L53.31 6.54Q53.77 6.06 54.38 5.82L54.38 5.82L54.38 5.82Q54.98 5.59 55.61 5.59L55.61 5.59L55.61 5.59Q57.08 5.59 57.86 6.50L57.86 6.50L57.86 6.50Q58.65 7.42 58.65 9.30L58.65 9.30L58.65 9.30Q58.65 9.38 58.65 9.51L58.65 9.51L58.65 9.51Q58.65 9.65 58.63 9.76L58.63 9.76L53.65 9.76L53.65 9.76Q53.73 10.89 54.31 11.48L54.31 11.48L54.31 11.48Q54.88 12.07 56.10 12.07L56.10 12.07L56.10 12.07Q56.78 12.07 57.25 11.95L57.25 11.95L57.25 11.95Q57.72 11.83 57.96 11.72L57.96 11.72L58.14 12.81L58.14 12.81Q57.90 12.94 57.31 13.08L57.31 13.08L57.31 13.08Q56.71 13.22 55.96 13.22L55.96 13.22L55.96 13.22Q55.01 13.22 54.31 12.93L54.31 12.93L54.31 12.93Q53.62 12.64 53.17 12.14L53.17 12.14L53.17 12.14Q52.72 11.63 52.51 10.94L52.51 10.94L52.51 10.94Q52.29 10.25 52.29 9.42ZM53.68 8.71L57.29 8.71L57.29 8.71Q57.30 7.83 56.85 7.26L56.85 7.26L56.85 7.26Q56.39 6.69 55.59 6.69L55.59 6.69L55.59 6.69Q55.15 6.69 54.80 6.87L54.80 6.87L54.80 6.87Q54.46 7.04 54.22 7.32L54.22 7.32L54.22 7.32Q53.98 7.60 53.85 7.97L53.85 7.97L53.85 7.97Q53.72 8.33 53.68 8.71L53.68 8.71ZM63.69 13.22L63.69 13.22L63.69 13.22Q62.80 13.22 62.14 12.94L62.14 12.94L62.14 12.94Q61.47 12.66 61.02 12.15L61.02 12.15L61.02 12.15Q60.56 11.65 60.34 10.96L60.34 10.96L60.34 10.96Q60.12 10.26 60.12 9.42L60.12 9.42L60.12 9.42Q60.12 8.58 60.36 7.88L60.36 7.88L60.36 7.88Q60.61 7.18 61.05 6.67L61.05 6.67L61.05 6.67Q61.50 6.16 62.15 5.87L62.15 5.87L62.15 5.87Q62.80 5.59 63.60 5.59L63.60 5.59L63.60 5.59Q64.09 5.59 64.58 5.67L64.58 5.67L64.58 5.67Q65.07 5.75 65.52 5.94L65.52 5.94L65.23 7.04L65.23 7.04Q64.93 6.90 64.55 6.82L64.55 6.82L64.55 6.82Q64.16 6.73 63.73 6.73L63.73 6.73L63.73 6.73Q62.64 6.73 62.06 7.42L62.06 7.42L62.06 7.42Q61.47 8.11 61.47 9.42L61.47 9.42L61.47 9.42Q61.47 10.01 61.61 10.50L61.61 10.50L61.61 10.50Q61.74 10.99 62.03 11.34L62.03 11.34L62.03 11.34Q62.31 11.69 62.76 11.88L62.76 11.88L62.76 11.88Q63.21 12.07 63.85 12.07L63.85 12.07L63.85 12.07Q64.37 12.07 64.79 11.97L64.79 11.97L64.79 11.97Q65.21 11.87 65.45 11.76L65.45 11.76L65.63 12.85L65.63 12.85Q65.52 12.92 65.31 12.98L65.31 12.98L65.31 12.98Q65.10 13.05 64.83 13.10L64.83 13.10L64.83 13.10Q64.57 13.15 64.27 13.18L64.27 13.18L64.27 13.18Q63.97 13.22 63.69 13.22ZM68.33 13.05L67.03 13.05L67.03 2.41L68.33 2.18L68.33 5.91L68.33 5.91Q68.70 5.77 69.11 5.69L69.11 5.69L69.11 5.69Q69.52 5.61 69.93 5.61L69.93 5.61L69.93 5.61Q70.80 5.61 71.37 5.86L71.37 5.86L71.37 5.86Q71.95 6.10 72.29 6.54L72.29 6.54L72.29 6.54Q72.63 6.99 72.77 7.60L72.77 7.60L72.77 7.60Q72.91 8.22 72.91 8.96L72.91 8.96L72.91 13.05L71.61 13.05L71.61 9.24L71.61 9.24Q71.61 8.57 71.52 8.09L71.52 8.09L71.52 8.09Q71.43 7.62 71.22 7.32L71.22 7.32L71.22 7.32Q71.01 7.03 70.66 6.89L70.66 6.89L70.66 6.89Q70.31 6.76 69.79 6.76L69.79 6.76L69.79 6.76Q69.58 6.76 69.36 6.79L69.36 6.79L69.36 6.79Q69.13 6.82 68.93 6.85L68.93 6.85L68.93 6.85Q68.73 6.89 68.57 6.93L68.57 6.93L68.57 6.93Q68.40 6.97 68.33 7L68.33 7L68.33 13.05ZM83.01 3.35L83.01 9.93L83.01 9.93Q83.01 10.63 82.86 11.23L82.86 11.23L82.86 11.23Q82.71 11.83 82.34 12.29L82.34 12.29L82.34 12.29Q81.97 12.74 81.35 13.00L81.35 13.00L81.35 13.00Q80.72 13.26 79.79 13.26L79.79 13.26L79.79 13.26Q79.31 13.26 78.91 13.18L78.91 13.18L78.91 13.18Q78.51 13.10 78.19 12.98L78.19 12.98L78.19 12.98Q77.87 12.87 77.63 12.73L77.63 12.73L77.63 12.73Q77.39 12.60 77.25 12.47L77.25 12.47L77.78 11.40L77.78 11.40Q78.08 11.61 78.55 11.84L78.55 11.84L78.55 11.84Q79.02 12.07 79.72 12.07L79.72 12.07L79.72 12.07Q80.72 12.07 81.19 11.56L81.19 11.56L81.19 11.56Q81.65 11.05 81.65 9.80L81.65 9.80L81.65 3.35L83.01 3.35ZM84.85 9.42L84.85 9.42L84.85 9.42Q84.85 8.46 85.13 7.74L85.13 7.74L85.13 7.74Q85.41 7.01 85.88 6.54L85.88 6.54L85.88 6.54Q86.34 6.06 86.94 5.82L86.94 5.82L86.94 5.82Q87.54 5.59 88.17 5.59L88.17 5.59L88.17 5.59Q89.64 5.59 90.43 6.50L90.43 6.50L90.43 6.50Q91.21 7.42 91.21 9.30L91.21 9.30L91.21 9.30Q91.21 9.38 91.21 9.51L91.21 9.51L91.21 9.51Q91.21 9.65 91.20 9.76L91.20 9.76L86.21 9.76L86.21 9.76Q86.30 10.89 86.87 11.48L86.87 11.48L86.87 11.48Q87.44 12.07 88.66 12.07L88.66 12.07L88.66 12.07Q89.35 12.07 89.82 11.95L89.82 11.95L89.82 11.95Q90.29 11.83 90.52 11.72L90.52 11.72L90.71 12.81L90.71 12.81Q90.47 12.94 89.87 13.08L89.87 13.08L89.87 13.08Q89.28 13.22 88.52 13.22L88.52 13.22L88.52 13.22Q87.57 13.22 86.88 12.93L86.88 12.93L86.88 12.93Q86.18 12.64 85.74 12.14L85.74 12.14L85.74 12.14Q85.29 11.63 85.07 10.94L85.07 10.94L85.07 10.94Q84.85 10.25 84.85 9.42ZM86.24 8.71L89.85 8.71L89.85 8.71Q89.87 7.83 89.41 7.26L89.41 7.26L89.41 7.26Q88.96 6.69 88.16 6.69L88.16 6.69L88.16 6.69Q87.71 6.69 87.37 6.87L87.37 6.87L87.37 6.87Q87.02 7.04 86.79 7.32L86.79 7.32L86.79 7.32Q86.55 7.60 86.42 7.97L86.42 7.97L86.42 7.97Q86.28 8.33 86.24 8.71L86.24 8.71ZM93.09 13.05L93.09 5.98L93.09 5.98Q93.53 5.87 94.28 5.74L94.28 5.74L94.28 5.74Q95.02 5.61 95.98 5.61L95.98 5.61L95.98 5.61Q96.85 5.61 97.43 5.86L97.43 5.86L97.43 5.86Q98.00 6.10 98.34 6.54L98.34 6.54L98.34 6.54Q98.69 6.99 98.83 7.60L98.83 7.60L98.83 7.60Q98.97 8.22 98.97 8.96L98.97 8.96L98.97 13.05L97.66 13.05L97.66 9.24L97.66 9.24Q97.66 8.57 97.57 8.09L97.57 8.09L97.57 8.09Q97.48 7.62 97.27 7.32L97.27 7.32L97.27 7.32Q97.06 7.03 96.71 6.89L96.71 6.89L96.71 6.89Q96.36 6.76 95.84 6.76L95.84 6.76L95.84 6.76Q95.63 6.76 95.41 6.78L95.41 6.78L95.41 6.78Q95.19 6.79 94.98 6.81L94.98 6.81L94.98 6.81Q94.78 6.83 94.62 6.86L94.62 6.86L94.62 6.86Q94.46 6.89 94.39 6.90L94.39 6.90L94.39 13.05L93.09 13.05ZM102.82 12.11L102.82 12.11L102.82 12.11Q103.61 12.11 104.00 11.90L104.00 11.90L104.00 11.90Q104.38 11.69 104.38 11.23L104.38 11.23L104.38 11.23Q104.38 10.75 104.01 10.47L104.01 10.47L104.01 10.47Q103.63 10.19 102.76 9.84L102.76 9.84L102.76 9.84Q102.34 9.67 101.96 9.50L101.96 9.50L101.96 9.50Q101.57 9.32 101.29 9.09L101.29 9.09L101.29 9.09Q101.01 8.85 100.84 8.51L100.84 8.51L100.84 8.51Q100.67 8.18 100.67 7.69L100.67 7.69L100.67 7.69Q100.67 6.72 101.39 6.15L101.39 6.15L101.39 6.15Q102.10 5.59 103.33 5.59L103.33 5.59L103.33 5.59Q103.64 5.59 103.95 5.62L103.95 5.62L103.95 5.62Q104.26 5.66 104.52 5.71L104.52 5.71L104.52 5.71Q104.79 5.75 104.99 5.81L104.99 5.81L104.99 5.81Q105.20 5.87 105.31 5.91L105.31 5.91L105.07 7.03L105.07 7.03Q104.86 6.92 104.41 6.80L104.41 6.80L104.41 6.80Q103.96 6.68 103.33 6.68L103.33 6.68L103.33 6.68Q102.79 6.68 102.38 6.89L102.38 6.89L102.38 6.89Q101.98 7.11 101.98 7.57L101.98 7.57L101.98 7.57Q101.98 7.81 102.07 7.99L102.07 7.99L102.07 7.99Q102.16 8.18 102.35 8.32L102.35 8.32L102.35 8.32Q102.54 8.47 102.82 8.60L102.82 8.60L102.82 8.60Q103.10 8.72 103.49 8.86L103.49 8.86L103.49 8.86Q104.01 9.06 104.41 9.25L104.41 9.25L104.41 9.25Q104.82 9.44 105.11 9.69L105.11 9.69L105.11 9.69Q105.39 9.94 105.55 10.30L105.55 10.30L105.55 10.30Q105.70 10.65 105.70 11.17L105.70 11.17L105.70 11.17Q105.70 12.18 104.95 12.70L104.95 12.70L104.95 12.70Q104.20 13.22 102.82 13.22L102.82 13.22L102.82 13.22Q101.85 13.22 101.30 13.05L101.30 13.05L101.30 13.05Q100.76 12.89 100.56 12.81L100.56 12.81L100.80 11.69L100.80 11.69Q101.02 11.77 101.51 11.94L101.51 11.94L101.51 11.94Q102.00 12.11 102.82 12.11ZM106.96 9.42L106.96 9.42L106.96 9.42Q106.96 8.46 107.24 7.74L107.24 7.74L107.24 7.74Q107.52 7.01 107.98 6.54L107.98 6.54L107.98 6.54Q108.44 6.06 109.05 5.82L109.05 5.82L109.05 5.82Q109.65 5.59 110.28 5.59L110.28 5.59L110.28 5.59Q111.75 5.59 112.53 6.50L112.53 6.50L112.53 6.50Q113.32 7.42 113.32 9.30L113.32 9.30L113.32 9.30Q113.32 9.38 113.32 9.51L113.32 9.51L113.32 9.51Q113.32 9.65 113.30 9.76L113.30 9.76L108.32 9.76L108.32 9.76Q108.40 10.89 108.98 11.48L108.98 11.48L108.98 11.48Q109.55 12.07 110.77 12.07L110.77 12.07L110.77 12.07Q111.45 12.07 111.92 11.95L111.92 11.95L111.92 11.95Q112.39 11.83 112.63 11.72L112.63 11.72L112.81 12.81L112.81 12.81Q112.57 12.94 111.98 13.08L111.98 13.08L111.98 13.08Q111.38 13.22 110.63 13.22L110.63 13.22L110.63 13.22Q109.68 13.22 108.98 12.93L108.98 12.93L108.98 12.93Q108.29 12.64 107.84 12.14L107.84 12.14L107.84 12.14Q107.39 11.63 107.18 10.94L107.18 10.94L107.18 10.94Q106.96 10.25 106.96 9.42ZM108.35 8.71L111.96 8.71L111.96 8.71Q111.97 7.83 111.52 7.26L111.52 7.26L111.52 7.26Q111.06 6.69 110.26 6.69L110.26 6.69L110.26 6.69Q109.82 6.69 109.47 6.87L109.47 6.87L109.47 6.87Q109.13 7.04 108.89 7.32L108.89 7.32L108.89 7.32Q108.65 7.60 108.52 7.97L108.52 7.97L108.52 7.97Q108.39 8.33 108.35 8.71L108.35 8.71ZM115.19 13.05L115.19 5.98L115.19 5.98Q115.64 5.87 116.38 5.74L116.38 5.74L116.38 5.74Q117.12 5.61 118.09 5.61L118.09 5.61L118.09 5.61Q118.96 5.61 119.53 5.86L119.53 5.86L119.53 5.86Q120.11 6.10 120.45 6.54L120.45 6.54L120.45 6.54Q120.79 6.99 120.93 7.60L120.93 7.60L120.93 7.60Q121.07 8.22 121.07 8.96L121.07 8.96L121.07 13.05L119.77 13.05L119.77 9.24L119.77 9.24Q119.77 8.57 119.68 8.09L119.68 8.09L119.68 8.09Q119.59 7.62 119.38 7.32L119.38 7.32L119.38 7.32Q119.17 7.03 118.82 6.89L118.82 6.89L118.82 6.89Q118.47 6.76 117.95 6.76L117.95 6.76L117.95 6.76Q117.74 6.76 117.52 6.78L117.52 6.78L117.52 6.78Q117.29 6.79 117.09 6.81L117.09 6.81L117.09 6.81Q116.89 6.83 116.73 6.86L116.73 6.86L116.73 6.86Q116.56 6.89 116.49 6.90L116.49 6.90L116.49 13.05L115.19 13.05Z"></path></g><defs data-v-fde0c5aa=""><!----></defs><g data-v-fde0c5aa="" id="6279c48d-69b5-4a94-985f-874df70fc42c" stroke="none" fill="#754ef9" transform="matrix(0.6560470867703695,0,0,0.6560470867703695,29.254561160119327,118.05050512244829)"><path d="M63.2 47.1c.8 0 1.5-.5 1.8-1.2.4-1 0-2.2-1-2.6-13.8-6-42.4-5.1-43.7-5-1.1 0-2 1-1.9 2.1 0 1.1.9 2 2.1 1.9.1 0 6.5-.2 14.6.2v16.2c0 3-.7 6.9-3.8 8.4-3 1.5-7.8.4-11.7-2.6-.9-.7-2.1-.5-2.8.4-.7.9-.5 2.1.4 2.8 3.5 2.7 7.4 4.1 11 4.1 1.8 0 3.4-.4 4.9-1.1 2-1 5.2-3.5 5.9-9.4 1 .2 2.3.4 3.7.4 2.4 0 5.3-.5 8.4-2 1.7 2.6 6.3 9.6 10.7 15.2.4.5 1 .8 1.6.8.4 0 .9-.1 1.2-.4.9-.7 1-1.9.3-2.8-4.8-6.1-9.9-14-10.9-15.6-.9-4.3-1.7-9.8-2.2-12.7 4 .7 7.8 1.6 10.7 2.9h.7zM39 57.2V42.7c2.8.2 5.7.4 8.5.8.3 1.9 1.1 7.5 2 12.4-4.5 2.4-8.6 1.8-10.5 1.3zM76.5 57.9c-4 0-7.2 3.3-7.2 7.2s3.3 7.2 7.2 7.2 7.2-3.3 7.2-7.2-3.2-7.2-7.2-7.2zm0 10.5c-1.8 0-3.2-1.5-3.2-3.2s1.5-3.2 3.2-3.2 3.2 1.5 3.2 3.2-1.4 3.2-3.2 3.2zM36.1 29.5c0 4.3 3.5 7.8 7.8 7.8s7.8-3.5 7.8-7.8-3.5-7.8-7.8-7.8-7.8 3.5-7.8 7.8zm11.5 0c0 2.1-1.7 3.8-3.8 3.8S40 31.6 40 29.5s1.7-3.8 3.8-3.8 3.8 1.7 3.8 3.8z"></path></g><defs data-v-fde0c5aa=""><!----></defs><g data-v-fde0c5aa="" id="4e74f05f-ee89-414f-bc5c-6d2ad568fa67" fill="#C2B7DD" transform="matrix(0.6973631677914243,0,0,0.6973631677914243,96.75425602842849,155.45714272108495)"><path d="M0.59 7.91C0.59 11.31 2.95 12.87 5.54 12.87C7.32 12.87 9.10 11.90 9.14 11.59C9.31 10.29 9.37 9.70 9.37 9.66C9.37 9.56 9.32 9.52 9.16 9.51C9.10 9.51 9.04 9.49 9.00 9.49C8.89 9.49 8.83 9.53 8.81 9.70L8.62 11.33C8.61 11.45 7.50 12.24 5.94 12.24C3.81 12.24 2.10 10.29 2.10 7.94C2.10 5.42 3.53 3.54 5.53 3.54C7.38 3.54 8.72 5.01 8.72 5.17C8.72 5.29 8.67 6.40 8.67 6.45C8.67 6.59 8.71 6.64 8.97 6.64C9.17 6.64 9.24 6.62 9.24 6.44C9.24 5.73 9.30 3.92 9.30 3.67C9.30 3.47 9.18 3.44 8.97 3.44C8.75 3.44 8.72 3.50 8.72 3.67L8.72 4.05C8.72 4.16 8.68 4.16 8.55 4.06C8.27 3.86 7.29 3.04 5.63 3.04C2.79 3.04 0.59 4.96 0.59 7.91ZM17.82 8.15C17.82 11.17 20.16 12.80 22.41 12.80C25.20 12.80 27.17 10.89 27.17 8.06C27.17 5.33 25.42 3.11 22.62 3.11C20.02 3.11 17.82 5.10 17.82 8.15ZM19.22 7.77C19.22 5.64 20.51 3.58 22.48 3.58C24.72 3.58 25.80 5.81 25.80 7.94C25.80 10.08 24.70 12.32 22.43 12.32C20.44 12.32 19.22 10.28 19.22 7.77ZM35.21 12.46C35.21 12.63 35.22 12.70 35.41 12.70C35.56 12.70 36.79 12.64 37.18 12.64C38.04 12.64 38.92 12.70 39.77 12.70C42.39 12.70 44.79 11.07 44.79 7.91C44.79 4.89 42.45 3.07 39.41 3.07C38.85 3.07 37.59 3.23 36.55 3.23C36.08 3.23 35.62 3.22 35.56 3.22C35.38 3.22 35.36 3.32 35.36 3.49C35.36 3.68 35.43 3.70 35.56 3.70L36.53 3.67C36.55 3.67 36.55 4.20 36.55 4.72C36.55 5.91 36.47 12.21 36.39 12.21L35.49 12.21C35.31 12.21 35.21 12.22 35.21 12.46ZM37.79 11.40C37.79 9.46 37.79 7.52 37.80 5.60C37.80 5.03 37.84 3.61 37.88 3.60C38.18 3.53 38.77 3.51 39.12 3.51C41.68 3.51 43.29 5.75 43.29 7.73C43.29 8.95 43.25 12.25 38.57 12.25C38.30 12.25 37.90 12.25 37.80 12.21C37.79 12.19 37.79 11.79 37.79 11.40ZM52.75 12.39C52.75 12.63 52.79 12.68 52.99 12.68C53.31 12.68 54.07 12.64 54.78 12.64C55.44 12.64 56.24 12.68 56.46 12.68C56.63 12.68 56.66 12.61 56.66 12.40C56.66 12.24 56.63 12.18 56.46 12.18L55.50 12.18C55.40 12.18 55.37 9.55 55.37 7.76L55.37 5.87C55.37 5.14 55.40 3.70 55.50 3.70L56.41 3.70C56.63 3.70 56.66 3.68 56.66 3.49C56.66 3.25 56.63 3.19 56.46 3.19C56.14 3.19 55.47 3.23 54.81 3.23C54.00 3.23 53.28 3.19 53.06 3.19C52.88 3.19 52.81 3.21 52.81 3.44C52.81 3.68 52.89 3.70 53.06 3.70L53.98 3.70C54.03 3.70 54.10 4.79 54.10 5.71L54.10 7.08C54.10 8.92 54.08 12.18 53.97 12.18L53.05 12.18C52.82 12.18 52.75 12.19 52.75 12.39ZM64.55 12.39C64.55 12.63 64.57 12.68 64.76 12.68C64.95 12.68 65.32 12.64 65.94 12.64C66.57 12.64 67.13 12.68 67.45 12.68C67.62 12.68 67.62 12.61 67.62 12.40C67.62 12.24 67.62 12.18 67.45 12.18L66.25 12.18C66.21 12.18 66.19 11.54 66.19 10.79C66.19 9.46 66.21 7.48 66.21 5.99C66.21 5.25 66.21 4.84 66.22 4.28C66.22 4.02 66.29 4.14 66.42 4.28L73.30 12.66C73.39 12.75 73.47 12.89 73.58 12.89C73.70 12.89 73.77 12.77 73.77 12.54C73.77 12.39 73.93 6.65 73.95 4.48C73.95 4.06 73.98 3.70 74.00 3.70L74.63 3.70C74.86 3.70 74.91 3.68 74.91 3.49C74.91 3.25 74.91 3.19 74.72 3.19C74.52 3.19 74.09 3.23 73.53 3.23C72.91 3.23 72.11 3.19 72.02 3.19C71.85 3.19 71.85 3.26 71.85 3.47C71.85 3.64 71.85 3.70 72.02 3.70L73.32 3.70C73.33 3.70 73.33 4.33 73.33 4.44C73.33 5.85 73.36 8.33 73.36 9.70L73.36 10.29C73.36 10.57 73.35 10.65 73.12 10.37L67.44 3.39C67.33 3.25 67.30 3.19 67.13 3.19C67.05 3.19 66.67 3.23 66.36 3.23C66.07 3.23 64.99 3.19 64.79 3.19C64.62 3.19 64.60 3.26 64.60 3.47C64.60 3.64 64.62 3.70 64.79 3.70L65.70 3.70C65.70 4.17 65.66 8.53 65.59 10.79C65.56 11.69 65.58 12.18 65.46 12.18L64.82 12.18C64.60 12.18 64.55 12.19 64.55 12.39ZM83.02 7.91C83.02 11.40 85.39 12.89 87.98 12.89C89.87 12.89 91.87 11.89 91.87 11.58C91.87 11.12 91.88 10.68 91.88 10.33C91.88 9.81 91.90 9.56 92.02 9.56L92.46 9.56C92.60 9.56 92.61 9.39 92.61 9.30C92.61 9.18 92.60 9.06 92.46 9.06C92.23 9.06 91.87 9.10 91.20 9.10C90.75 9.10 90.01 9.07 89.32 9.06C89.18 9.06 89.18 9.24 89.18 9.35C89.18 9.45 89.21 9.56 89.33 9.56L90.55 9.56C90.59 9.56 90.65 9.87 90.65 10.33C90.65 10.82 90.64 11.41 90.61 11.65C90.59 11.76 89.95 12.39 88.37 12.39C86.13 12.39 84.53 10.29 84.53 7.94C84.53 5.42 86.09 3.54 88.09 3.54C89.98 3.54 91.15 4.87 91.15 5.03C91.15 5.15 91.10 6.12 91.10 6.17C91.10 6.31 91.14 6.36 91.41 6.36C91.60 6.36 91.67 6.33 91.67 6.15C91.67 5.43 91.71 3.75 91.71 3.56C91.71 3.36 91.62 3.33 91.41 3.33C91.18 3.33 91.15 3.39 91.15 3.56L91.15 3.91C91.15 3.99 91.11 4.02 90.99 3.92C90.71 3.72 89.71 3.08 88.14 3.08C85.30 3.08 83.02 4.79 83.02 7.91ZM110.31 12.39C110.31 12.63 110.35 12.68 110.54 12.68C110.87 12.68 111.62 12.64 112.34 12.64C112.99 12.64 113.79 12.68 114.02 12.68C114.18 12.68 114.21 12.61 114.21 12.40C114.21 12.24 114.18 12.18 114.02 12.18L113.05 12.18C112.95 12.18 112.92 9.55 112.92 7.76L112.92 5.87C112.92 5.14 112.95 3.70 113.05 3.70L113.96 3.70C114.18 3.70 114.21 3.68 114.21 3.49C114.21 3.25 114.18 3.19 114.02 3.19C113.69 3.19 113.02 3.23 112.36 3.23C111.55 3.23 110.84 3.19 110.61 3.19C110.43 3.19 110.36 3.21 110.36 3.44C110.36 3.68 110.45 3.70 110.61 3.70L111.54 3.70C111.58 3.70 111.65 4.79 111.65 5.71L111.65 7.08C111.65 8.92 111.64 12.18 111.52 12.18L110.60 12.18C110.38 12.18 110.31 12.19 110.31 12.39ZM122.32 5.77C122.32 9.07 127.30 8.20 127.30 10.65C127.30 11.59 126.46 12.31 125.48 12.31C124.66 12.31 123.06 11.83 123.03 11.47L122.95 10.15C122.93 9.97 122.86 9.91 122.68 9.91L122.61 9.91C122.40 9.91 122.40 10.00 122.40 10.12C122.40 10.32 122.51 11.66 122.54 12.17C122.56 12.38 123.82 12.85 125.36 12.85C126.92 12.85 128.53 11.87 128.53 10.11C128.53 6.79 123.56 7.87 123.56 5.32C123.56 4.31 124.35 3.56 125.38 3.56C126.41 3.56 127.50 4.58 127.50 4.89C127.50 5.01 127.46 5.73 127.46 5.78C127.46 5.92 127.50 5.99 127.76 5.99C128.00 5.99 128.02 5.94 128.02 5.75C128.02 5.04 128.10 3.68 128.10 3.53C128.10 3.30 128.06 3.29 127.79 3.29C127.57 3.29 127.55 3.32 127.54 3.53C127.54 3.61 127.53 3.78 127.48 3.78C127.43 3.78 127.34 3.74 127.27 3.68C126.48 3.14 125.86 3.08 125.36 3.08C123.83 3.08 122.32 4.17 122.32 5.77ZM146.16 12.39C146.16 12.63 146.16 12.68 146.36 12.68C146.52 12.68 146.85 12.64 147.42 12.64C148.04 12.64 148.58 12.68 148.74 12.68C148.90 12.68 148.90 12.61 148.90 12.40C148.90 12.24 148.90 12.18 148.74 12.18L147.66 12.18C147.66 12.18 147.64 12.18 147.64 12.17C147.66 11.87 148.43 9.90 148.78 9.02C148.85 8.83 148.86 8.79 149.07 8.79L151.90 8.79C152.04 8.79 152.04 8.81 152.11 9.03C152.38 9.77 153.09 11.89 153.09 12.17C153.09 12.18 153.08 12.18 153.08 12.18L152.31 12.18C152.08 12.18 152.07 12.19 152.07 12.39C152.07 12.63 152.08 12.68 152.25 12.68C152.57 12.68 153.44 12.64 153.86 12.64C154.28 12.64 154.95 12.68 155.16 12.68C155.30 12.68 155.32 12.61 155.32 12.40C155.32 12.24 155.30 12.18 155.16 12.18L154.67 12.18C154.57 12.18 153.55 9.34 152.99 7.78L151.31 3.07C151.30 3.00 151.23 2.94 151.14 2.94C151.02 2.94 150.92 3.16 150.84 3.35C150.68 3.71 150.44 3.84 150.33 4.13L148.85 7.57C148.67 8.01 146.96 12.18 146.83 12.18L146.41 12.18C146.19 12.18 146.16 12.19 146.16 12.39ZM149.06 8.33C149.06 8.30 149.09 8.23 149.13 8.13L150.50 4.77C150.54 4.66 150.57 4.61 150.60 4.61C150.61 4.61 150.63 4.63 150.67 4.77L151.83 8.18C151.86 8.25 151.87 8.29 151.87 8.32C151.87 8.36 151.84 8.37 151.75 8.37L149.24 8.37C149.06 8.37 149.06 8.34 149.06 8.33ZM172.94 7.91C172.94 11.40 175.31 12.89 177.90 12.89C179.79 12.89 181.79 11.89 181.79 11.58C181.79 11.12 181.80 10.68 181.80 10.33C181.80 9.81 181.82 9.56 181.94 9.56L182.38 9.56C182.52 9.56 182.53 9.39 182.53 9.30C182.53 9.18 182.52 9.06 182.38 9.06C182.15 9.06 181.79 9.10 181.12 9.10C180.67 9.10 179.93 9.07 179.24 9.06C179.10 9.06 179.10 9.24 179.10 9.35C179.10 9.45 179.13 9.56 179.26 9.56L180.47 9.56C180.52 9.56 180.57 9.87 180.57 10.33C180.57 10.82 180.56 11.41 180.53 11.65C180.52 11.76 179.87 12.39 178.29 12.39C176.05 12.39 174.45 10.29 174.45 7.94C174.45 5.42 176.01 3.54 178.01 3.54C179.90 3.54 181.08 4.87 181.08 5.03C181.08 5.15 181.02 6.12 181.02 6.17C181.02 6.31 181.06 6.36 181.33 6.36C181.52 6.36 181.59 6.33 181.59 6.15C181.59 5.43 181.64 3.75 181.64 3.56C181.64 3.36 181.54 3.33 181.33 3.33C181.10 3.33 181.08 3.39 181.08 3.56L181.08 3.91C181.08 3.99 181.03 4.02 180.91 3.92C180.63 3.72 179.63 3.08 178.07 3.08C175.22 3.08 172.94 4.79 172.94 7.91ZM190.15 12.39C190.15 12.63 190.15 12.68 190.34 12.68C190.51 12.68 190.83 12.64 191.41 12.64C192.02 12.64 192.57 12.68 192.72 12.68C192.89 12.68 192.89 12.61 192.89 12.40C192.89 12.24 192.89 12.18 192.72 12.18L191.65 12.18C191.65 12.18 191.63 12.18 191.63 12.17C191.65 11.87 192.42 9.90 192.77 9.02C192.84 8.83 192.85 8.79 193.06 8.79L195.89 8.79C196.03 8.79 196.03 8.81 196.10 9.03C196.36 9.77 197.08 11.89 197.08 12.17C197.08 12.18 197.06 12.18 197.06 12.18L196.29 12.18C196.07 12.18 196.06 12.19 196.06 12.39C196.06 12.63 196.07 12.68 196.24 12.68C196.56 12.68 197.43 12.64 197.85 12.64C198.27 12.64 198.94 12.68 199.15 12.68C199.29 12.68 199.30 12.61 199.30 12.40C199.30 12.24 199.29 12.18 199.15 12.18L198.66 12.18C198.56 12.18 197.54 9.34 196.98 7.78L195.30 3.07C195.29 3.00 195.22 2.94 195.13 2.94C195.01 2.94 194.91 3.16 194.82 3.35C194.67 3.71 194.43 3.84 194.32 4.13L192.84 7.57C192.65 8.01 190.95 12.18 190.82 12.18L190.40 12.18C190.18 12.18 190.15 12.19 190.15 12.39ZM193.05 8.33C193.05 8.30 193.07 8.23 193.12 8.13L194.49 4.77C194.53 4.66 194.56 4.61 194.59 4.61C194.60 4.61 194.61 4.63 194.66 4.77L195.82 8.18C195.85 8.25 195.86 8.29 195.86 8.32C195.86 8.36 195.83 8.37 195.73 8.37L193.23 8.37C193.05 8.37 193.05 8.34 193.05 8.33ZM206.99 12.39C206.99 12.63 207.02 12.68 207.21 12.68C207.45 12.68 207.96 12.64 208.38 12.64C208.80 12.64 209.29 12.68 209.61 12.68C209.78 12.68 209.80 12.61 209.80 12.40C209.80 12.24 209.78 12.18 209.61 12.18L208.64 12.18C208.59 12.18 208.57 11.54 208.57 10.79C208.57 8.96 208.61 6.13 208.68 4.28C208.71 3.88 208.74 3.91 208.88 4.27L212.14 12.32C212.24 12.54 212.31 12.74 212.42 12.74C212.52 12.74 212.59 12.63 212.67 12.45C213.01 11.79 213.19 11.75 213.46 11.09L216.05 4.47C216.17 4.16 216.22 4.02 216.23 4.47C216.26 5.66 216.30 8.47 216.30 9.74C216.30 10.99 216.26 12.18 216.20 12.18L215.57 12.18C215.35 12.18 215.28 12.19 215.28 12.39C215.28 12.63 215.31 12.68 215.50 12.68C215.70 12.68 216.40 12.64 217 12.64C217.42 12.64 218.18 12.68 218.50 12.68C218.67 12.68 218.69 12.61 218.69 12.40C218.69 12.22 218.64 12.18 218.47 12.18L217.74 12.18C217.63 12.18 217.53 8.44 217.53 6.03L217.53 4.77C217.53 4.17 217.56 3.77 217.60 3.70L218.26 3.70C218.48 3.70 218.53 3.68 218.53 3.49C218.53 3.25 218.51 3.19 218.32 3.19C217.99 3.19 217.31 3.23 216.89 3.23L216.22 3.23C215.99 3.23 215.96 3.29 215.85 3.58L213.11 10.72C213.02 10.95 213.00 11.02 212.88 10.74L209.94 3.40C209.87 3.22 209.82 3.19 209.68 3.19C209.59 3.19 209.10 3.23 208.80 3.23C208.29 3.23 207.44 3.19 207.24 3.19C207.10 3.19 207.10 3.26 207.10 3.47C207.10 3.64 207.10 3.70 207.24 3.70L207.94 3.70C208.21 3.70 208.21 3.72 208.21 3.84C208.21 4.82 208.00 9.94 207.96 10.79C207.91 11.55 207.91 12.18 207.86 12.18L207.28 12.18C207.06 12.18 206.99 12.19 206.99 12.39ZM226.59 12.39C226.59 12.63 226.62 12.68 226.81 12.68C227.14 12.68 228.10 12.64 228.52 12.64C228.94 12.64 233.45 12.68 233.77 12.68C233.90 12.68 234.05 12.66 234.05 12.49C234.05 12.07 234.09 11.23 234.09 10.53C234.09 10.39 233.94 10.39 233.81 10.39C233.70 10.39 233.58 10.39 233.58 10.51C233.56 11.06 233.56 11.41 233.53 11.76C233.51 12.01 233.51 12.04 233.41 12.04C233.25 12.04 230.62 12.08 229.12 12.08C229.05 12.08 229.01 10.11 228.97 8.26C228.97 8.06 229.01 8.09 229.15 8.09L231.43 8.09C232.13 8.09 232.16 8.20 232.16 8.30L232.16 9.00C232.16 9.14 232.34 9.14 232.46 9.14C232.55 9.14 232.68 9.13 232.68 9.02C232.68 8.83 232.65 8.33 232.65 7.83C232.65 7.32 232.68 6.83 232.68 6.71C232.68 6.59 232.54 6.58 232.44 6.58C232.33 6.58 232.16 6.59 232.16 6.72L232.16 7.45C232.16 7.62 231.71 7.63 231.43 7.63L229.10 7.63C228.98 7.63 228.97 7.63 228.97 7.45C228.96 6.75 228.94 6.06 228.94 5.46C228.94 5.12 228.94 3.71 229.03 3.71C230.26 3.71 232.76 3.75 232.76 3.81C232.76 3.99 232.72 4.83 232.72 4.89C232.72 5.04 232.79 5.10 232.97 5.10C233.17 5.10 233.24 5.08 233.24 4.94C233.24 3.85 233.30 3.36 233.30 3.09C233.30 2.91 233.21 2.90 233.02 2.90C232.82 2.90 232.82 2.95 232.79 3.11C232.78 3.25 232.85 3.25 231.94 3.25C231.32 3.25 229.18 3.29 228.41 3.29C227.92 3.29 226.98 3.25 226.88 3.25C226.76 3.25 226.70 3.30 226.70 3.49C226.70 3.72 226.77 3.74 226.94 3.74L227.60 3.74C227.65 3.74 227.72 4.79 227.72 5.71C227.72 5.80 227.78 8.27 227.78 9.83L227.78 11.17C227.78 11.84 227.75 12.18 227.72 12.18L226.87 12.18C226.65 12.18 226.59 12.21 226.59 12.39Z"></path></g></svg>